<svg width="1191" height="250" viewBox="0 0 1191 250" fill="none" xmlns="http://www.w3.org/2000/svg">
<path d="M69.2757 185.814C54.5198 185.814 42.1595 183.516 32.1945 178.918C22.2295 174.32 14.5642 168.094 9.19843 160.24C4.02431 152.385 0.95817 143.669 0 134.09L38.5184 132.366C40.0515 138.88 43.2134 143.956 48.0043 147.596C52.9868 151.236 60.173 153.056 69.5631 153.056C87.0018 153.056 95.7211 148.841 95.7211 140.412C95.7211 137.539 94.9546 135.144 93.4215 133.228C92.0801 131.312 89.2056 129.588 84.798 128.056C80.5821 126.332 74.2581 124.703 65.8262 123.171C50.3039 119.914 37.9435 116.274 28.7451 112.251C19.7383 108.037 13.2227 102.864 9.19843 96.7339C5.36575 90.4121 3.44941 82.5577 3.44941 73.1707C3.44941 64.3585 5.74902 56.3125 10.3482 49.0328C14.9474 41.5615 21.9421 35.7186 31.3321 31.5041C40.7222 27.0979 52.5077 24.8949 66.6886 24.8949C82.0193 24.8949 94.3797 27.3853 103.77 32.3661C113.351 37.1554 120.538 43.573 125.329 51.619C130.119 59.4734 133.186 67.8067 134.527 76.619L95.7211 78.3431C94.5713 72.2129 91.5052 67.232 86.5227 63.4006C81.5402 59.5692 74.9289 57.6535 66.6886 57.6535C58.4483 57.6535 52.5077 59.2818 48.8666 62.5385C45.2256 65.6037 43.4051 69.1477 43.4051 73.1707C43.4051 76.8106 44.3632 79.7799 46.2796 82.0788C48.1959 84.3776 51.6453 86.3891 56.6278 88.1133C61.8019 89.8374 68.9882 91.6573 78.1866 93.573C93.1341 96.4466 104.728 99.7991 112.968 103.631C121.208 107.462 127.053 112.251 130.503 117.998C133.952 123.745 135.677 130.929 135.677 139.55C135.677 153.918 129.832 165.221 118.142 173.458C106.644 181.696 90.3554 185.814 69.2757 185.814Z" fill="white"/>
<path d="M242.784 185.814C228.219 185.814 215.284 182.462 203.978 175.757C192.863 169.052 184.144 159.665 177.82 147.596C171.687 135.335 168.621 121.255 168.621 105.355C168.621 89.4543 171.687 75.4696 177.82 63.4006C184.144 51.3316 192.863 41.9447 203.978 35.2397C215.284 28.3431 228.219 24.8949 242.784 24.8949C254.857 24.8949 265.876 27.2895 275.841 32.0788C285.805 36.8681 293.95 43.7646 300.274 52.7684C306.789 61.5807 310.91 72.0213 312.634 84.0903L273.828 86.1018C271.912 77.4811 268.271 70.8719 262.905 66.2742C257.539 61.6765 250.928 59.3776 243.071 59.3776C232.34 59.3776 224.004 63.4964 218.063 71.7339C212.122 79.7799 209.152 90.9868 209.152 105.355C209.152 119.722 212.122 131.025 218.063 139.263C224.004 147.309 232.34 151.332 243.071 151.332C251.12 151.332 257.827 148.937 263.193 144.148C268.75 139.358 272.391 132.366 274.116 123.171L312.922 125.182C311.197 137.443 307.077 148.171 300.561 157.366C294.237 166.37 286.093 173.362 276.128 178.343C266.163 183.324 255.048 185.814 242.784 185.814Z" fill="white"/>
<path d="M347.016 182.366V151.332H383.81V59.3776H347.016V28.3431H412.555L414.854 58.2282C417.346 48.2665 421.562 40.7953 427.502 35.8144C433.443 30.8336 441.683 28.3431 452.223 28.3431H486.717V60.2397H455.098C433.635 60.2397 422.903 71.4466 422.903 93.8604V151.332H469.758V182.366H347.016Z" fill="white"/>
<path d="M564.806 210.345C555.416 210.345 546.792 208.621 538.935 205.172C531.27 201.724 525.138 196.743 520.538 190.23C515.939 183.716 513.64 175.958 513.64 166.954C513.64 153.927 517.76 143.774 526 136.494C534.432 129.215 545.93 124.042 560.494 120.977L606.774 110.92C606.774 101.341 604.761 93.9655 600.737 88.7931C596.905 83.4291 590.581 80.7471 581.765 80.7471C573.908 80.7471 567.872 82.7586 563.656 86.7816C559.632 90.613 556.949 95.5939 555.607 101.724L515.364 99.4253C518.239 84.2912 525.425 72.2222 536.923 63.2184C548.613 54.023 563.369 49.4253 581.191 49.4253C603.42 49.4253 619.709 55.0766 630.057 66.3793C640.597 77.4904 645.867 93.1034 645.867 113.218V167.529C645.867 171.36 646.538 174.042 647.879 175.575C649.221 176.916 651.233 177.586 653.916 177.586H660.24V206.897C659.09 207.088 657.173 207.28 654.49 207.471C651.808 207.854 649.029 208.046 646.154 208.046C626.991 208.046 615.301 200 611.085 183.908C607.828 191.762 602.174 198.18 594.126 203.161C586.077 207.95 576.304 210.345 564.806 210.345ZM572.854 181.034C583.778 181.034 592.114 178.161 597.863 172.414C603.803 166.475 606.774 158.238 606.774 147.701V138.506L572.567 145.977C565.668 147.51 560.781 149.713 557.907 152.586C555.032 155.46 553.595 159.579 553.595 164.943C553.595 175.67 560.015 181.034 572.854 181.034Z" fill="#C8F500"/>
<path d="M688.872 250V52.8736H726.528L727.391 78.1609C731.607 68.9655 737.547 61.8774 745.213 56.8966C753.07 51.9157 762.46 49.4253 773.383 49.4253C786.797 49.4253 798.008 52.9693 807.015 60.0575C816.213 67.1456 823.016 76.8199 827.424 89.0805C832.023 101.149 834.322 114.751 834.322 129.885C834.322 145.019 832.023 158.716 827.424 170.977C823.016 183.046 816.213 192.625 807.015 199.713C798.008 206.801 786.797 210.345 773.383 210.345C752.111 210.345 736.972 202.107 727.966 185.632V250H688.872ZM761.31 175.862C771.658 175.862 779.611 172.126 785.168 164.655C790.917 157.184 793.792 145.594 793.792 129.885C793.792 114.176 790.917 102.586 785.168 95.1149C779.611 87.6437 771.658 83.908 761.31 83.908C751.537 83.908 743.488 87.6437 737.164 95.1149C731.032 102.586 727.966 114.176 727.966 129.885C727.966 145.594 731.032 157.184 737.164 164.655C743.488 172.126 751.537 175.862 761.31 175.862Z" fill="#C8F500"/>
<path d="M864.68 206.897V175.862H921.883V83.908H867.554V52.8736H960.976V175.862H1009.56V206.897H864.68ZM920.733 33.908V0H960.401V33.908H920.733Z" fill="#C8F500"/>
<path d="M1061.3 175.357H1191V206.897H1061.3V175.357Z" fill="#C8F500"/>
</svg>
