<svg width="490" height="200" viewBox="0 0 490 200" fill="none" xmlns="http://www.w3.org/2000/svg">
<style>
  /* Default (light mode) */
  .s-letter { fill: #000000; }
  .a-letter { fill: #B3D032; }
  .dash { fill: #B3D032; }

  /* Dark mode */
  @media (prefers-color-scheme: dark) {
    .s-letter { fill: #FFFFFF; }
    .a-letter { fill: #C8F500; }
    .dash { fill: #C8F500; }
  }
</style>
<path class="s-letter" d="M72.0618 167.225C56.7126 167.225 43.8551 164.836 33.4893 160.058C23.1236 155.28 15.1499 148.81 9.56837 140.648C4.18616 132.486 0.996706 123.428 0 113.474L40.0676 111.682C41.6623 118.451 44.9514 123.727 49.935 127.509C55.1178 131.292 62.5931 133.183 72.3608 133.183C90.5009 133.183 99.5709 128.803 99.5709 120.044C99.5709 117.058 98.7735 114.569 97.1788 112.578C95.7834 110.588 92.7933 108.796 88.2085 107.203C83.823 105.412 77.2447 103.719 68.4737 102.127C52.3271 98.7424 39.4695 94.9599 29.9012 90.7793C20.5321 86.3996 13.7545 81.0245 9.56837 74.654C5.58155 68.0845 3.58814 59.9223 3.58814 50.1675C3.58814 41.01 5.98023 32.6487 10.7644 25.0838C15.5486 17.3197 22.8246 11.2479 32.5923 6.86817C42.36 2.28939 54.6195 0 69.3707 0C85.318 0 98.1755 2.58801 107.943 7.76403C117.91 12.741 125.386 19.4101 130.369 27.7713C135.353 35.9335 138.542 44.5933 139.937 53.7509L99.5709 55.5426C98.3749 49.1721 95.1854 43.9961 90.0025 40.0146C84.8197 36.033 77.9424 34.0422 69.3707 34.0422C60.7991 34.0422 54.6195 35.7344 50.832 39.1187C47.0445 42.304 45.1508 45.9869 45.1508 50.1675C45.1508 53.95 46.1475 57.0357 48.1409 59.4246C50.1343 61.8136 53.7224 63.9039 58.9053 65.6956C64.2875 67.4873 71.7628 69.3785 81.3312 71.3693C96.8798 74.3554 108.94 77.8393 117.512 81.8208C126.083 85.8024 132.163 90.7793 135.751 96.7516C139.339 102.724 141.134 110.189 141.134 119.148C141.134 134.079 135.054 145.824 122.894 154.385C110.933 162.945 93.9894 167.225 72.0618 167.225Z"/>
<path class="a-letter" d="M215.58 200C205.812 200 196.842 198.208 188.669 194.625C180.695 191.042 174.317 185.866 169.532 179.097C164.748 172.328 162.356 164.266 162.356 154.909C162.356 141.372 166.642 130.821 175.214 123.256C183.985 115.691 195.945 110.316 211.095 107.13L259.236 96.6788C259.236 86.7249 257.143 79.0605 252.957 73.6854C248.97 68.1112 242.392 65.3241 233.222 65.3241C225.049 65.3241 218.77 67.4144 214.384 71.5951C210.198 75.5766 207.407 80.7526 206.012 87.1231L164.15 84.7342C167.14 69.007 174.616 56.4652 186.576 47.1085C198.736 37.5528 214.085 32.7749 232.624 32.7749C255.747 32.7749 272.691 38.6477 283.456 50.3933C294.42 61.9398 299.901 78.1646 299.901 99.0677V155.506C299.901 159.488 300.599 162.275 301.995 163.867C303.39 165.261 305.483 165.958 308.274 165.958H314.852V196.417C313.656 196.616 311.663 196.815 308.872 197.014C306.081 197.412 303.191 197.611 300.2 197.611C280.266 197.611 268.107 189.25 263.721 172.527C260.332 180.689 254.452 187.359 246.079 192.535C237.707 197.512 227.541 200 215.58 200ZM223.952 169.541C235.315 169.541 243.986 166.555 249.967 160.583C256.146 154.411 259.236 145.851 259.236 134.902V125.346L223.653 133.11C216.477 134.703 211.394 136.992 208.404 139.978C205.414 142.964 203.919 147.244 203.919 152.819C203.919 163.967 210.597 169.541 223.952 169.541Z"/>
<path class="dash" d="M351.259 199.774V163.642H490V199.774H351.259Z"/>
</svg>
